name rise34.3697peak60.0498fall86.3158.mot
datacolumns 19
datarows 29
range 8.89329700000000 8.93996800000000
endheader
time	ground_force1_vx	ground_force1_vy	ground_force1_vz	ground_force1_px	ground_force1_py	ground_force1_pz	ground_force2_vx	ground_force2_vy	ground_force2_vz	ground_force2_px	ground_force2_py	ground_force2_pz	ground_torque1_x	ground_torque1_y	ground_torque1_z	ground_torque2_x	ground_torque2_y	ground_torque2_z	
8.89329700000000	-6.16605000000000	43.95699100000000	-6.00255300000000	0.37553600000000	0.00000000000000	0.10826800000000	-47.63158800000000	784.66600400000004	-54.84587700000000	0.21555000000000	0.00000000000000	-0.07617500000000	0.00000000000000	-4.79270800000000	0.00000000000000	0.00000000000000	-28.87486700000000	0.00000000000000	
8.89496900000000	-6.66845000000000	51.59306300000000	-6.69163300000000	0.37682700000000	0.00000000000000	0.10945900000000	-48.28105900000000	782.07245000000000	-54.47097400000000	0.21430300000000	0.00000000000000	-0.07607000000000	0.00000000000000	-5.38525200000000	0.00000000000000	0.00000000000000	-28.70839400000000	0.00000000000000	
8.89663600000000	-7.02938100000000	59.33879200000000	-7.29611800000000	0.37822200000000	0.00000000000000	0.11050500000000	-48.94593900000000	779.37651700000004	-54.07824000000000	0.21304900000000	0.00000000000000	-0.07596200000000	0.00000000000000	-5.92507100000000	0.00000000000000	0.00000000000000	-28.53994600000000	0.00000000000000	
8.89830400000000	-7.23209700000000	67.09349400000001	-7.79974500000000	0.37970100000000	0.00000000000000	0.11143100000000	-49.62586300000000	776.57609800000000	-53.66755200000000	0.21179100000000	0.00000000000000	-0.07584900000000	0.00000000000000	-6.39978700000000	0.00000000000000	0.00000000000000	-28.36955800000000	0.00000000000000	
8.89996600000000	-7.26745900000000	74.77977900000000	-8.19204000000000	0.38124800000000	0.00000000000000	0.11225600000000	-50.32036800000000	773.66898900000001	-53.23879500000000	0.21053000000000	0.00000000000000	-0.07573200000000	0.00000000000000	-6.80115900000000	0.00000000000000	0.00000000000000	-28.19725000000000	0.00000000000000	
8.90163700000000	-7.13372100000000	82.34599799999999	-8.46833700000000	0.38284800000000	0.00000000000000	0.11299600000000	-51.02888500000000	770.65288899999996	-52.79187100000000	0.20926600000000	0.00000000000000	-0.07561000000000	0.00000000000000	-7.12516000000000	0.00000000000000	0.00000000000000	-28.02303000000000	0.00000000000000	
8.90330100000000	-6.83575500000000	89.76618000000001	-8.62931900000000	0.38449300000000	0.00000000000000	0.11366300000000	-51.75074400000000	767.52540899999997	-52.32669700000000	0.20800200000000	0.00000000000000	-0.07548400000000	0.00000000000000	-7.37169500000000	0.00000000000000	0.00000000000000	-27.84689400000000	0.00000000000000	
8.90496400000000	-6.38386700000000	97.03785300000000	-8.68020400000000	0.38617400000000	0.00000000000000	0.11426600000000	-52.48516800000000	764.28407900000002	-51.84320800000000	0.20673700000000	0.00000000000000	-0.07535400000000	0.00000000000000	-7.54404400000000	0.00000000000000	0.00000000000000	-27.66882400000000	0.00000000000000	
8.90663400000000	-5.79236700000000	104.17832300000001	-8.62969700000000	0.38788400000000	0.00000000000000	0.11481600000000	-53.23127700000000	760.92635099999995	-51.34135800000000	0.20547400000000	0.00000000000000	-0.07521900000000	0.00000000000000	-7.64812600000000	0.00000000000000	0.00000000000000	-27.48878800000000	0.00000000000000	
8.90830000000000	-5.07806300000000	111.21997100000000	-8.48883900000000	0.38961800000000	0.00000000000000	0.11531700000000	-53.98808500000000	757.44961100000000	-50.82112000000000	0.20421500000000	0.00000000000000	-0.07507900000000	0.00000000000000	-7.69166300000000	0.00000000000000	0.00000000000000	-27.30674200000000	0.00000000000000	
8.90996200000000	-4.25880900000000	118.20514000000000	-8.26986800000000	0.39137300000000	0.00000000000000	0.11577600000000	-54.75450100000000	753.85118699999998	-50.28249300000000	0.20296000000000	0.00000000000000	-0.07493500000000	0.00000000000000	-7.68334600000000	0.00000000000000	0.00000000000000	-27.12263100000000	0.00000000000000	
8.91162900000000	-3.35221800000000	125.18109400000000	-7.98518300000000	0.39314300000000	0.00000000000000	0.11619900000000	-55.52932900000000	750.12836000000004	-49.72549800000000	0.20171100000000	0.00000000000000	-0.07478500000000	0.00000000000000	-7.63205700000000	0.00000000000000	0.00000000000000	-26.93638300000000	0.00000000000000	
8.91331000000000	-2.37461400000000	132.19543300000001	-7.64646500000000	0.39492700000000	0.00000000000000	0.11658800000000	-56.31127100000000	746.27836800000000	-49.15018500000000	0.20047100000000	0.00000000000000	-0.07463000000000	0.00000000000000	-7.54621100000000	0.00000000000000	0.00000000000000	-26.74791800000000	0.00000000000000	
8.91496700000000	-1.34026400000000	139.29226800000001	-7.26401300000000	0.39672100000000	0.00000000000000	0.11694800000000	-57.09892800000000	742.29842699999995	-48.55662800000000	0.19924000000000	0.00000000000000	-0.07447100000000	0.00000000000000	-7.43323100000000	0.00000000000000	0.00000000000000	-26.55714100000000	0.00000000000000	
8.91662900000000	-0.26090200000000	146.50929199999999	-6.84630000000000	0.39852300000000	0.00000000000000	0.11728100000000	-57.89080200000000	738.18573300000003	-47.94493500000000	0.19802000000000	0.00000000000000	-0.07430600000000	0.00000000000000	-7.29920200000000	0.00000000000000	0.00000000000000	-26.36394600000000	0.00000000000000	
8.91829800000000	0.85447800000000	153.87582599999999	-6.39974100000000	0.40033100000000	0.00000000000000	0.11759100000000	-58.68529600000000	733.93748200000005	-47.31524300000000	0.19681300000000	0.00000000000000	-0.07413500000000	0.00000000000000	-7.14867300000000	0.00000000000000	0.00000000000000	-26.16821600000000	0.00000000000000	
8.91997000000000	1.99957600000000	161.41182000000001	-5.92866600000000	0.40214400000000	0.00000000000000	0.11787800000000	-59.48072400000000	729.55088100000000	-46.66772400000000	0.19562100000000	0.00000000000000	-0.07396000000000	0.00000000000000	-6.98461000000000	0.00000000000000	0.00000000000000	-25.96982200000000	0.00000000000000	
8.92164300000000	3.17055600000000	169.12769800000001	-5.43544400000000	0.40396000000000	0.00000000000000	0.11814700000000	-60.27530500000000	725.02316399999995	-46.00258100000000	0.19444500000000	0.00000000000000	-0.07377800000000	0.00000000000000	-6.80847500000000	0.00000000000000	0.00000000000000	-25.76862700000000	0.00000000000000	
8.92330100000000	4.36567000000000	177.02490800000001	-4.92074100000000	0.40577700000000	0.00000000000000	0.11839700000000	-61.06717700000000	720.35160399999995	-45.32005500000000	0.19328800000000	0.00000000000000	-0.07359100000000	0.00000000000000	-6.62040300000000	0.00000000000000	0.00000000000000	-25.56448100000000	0.00000000000000	
8.92496700000000	5.58478900000000	185.09701600000000	-4.38385300000000	0.40759400000000	0.00000000000000	0.11863100000000	-61.85439200000000	715.53353500000003	-44.62042300000000	0.19215200000000	0.00000000000000	-0.07339900000000	0.00000000000000	-6.41944400000000	0.00000000000000	0.00000000000000	-25.35722600000000	0.00000000000000	
8.92663400000000	6.82890900000000	193.33114800000001	-3.82308300000000	0.40940900000000	0.00000000000000	0.11884900000000	-62.63492800000000	710.56636500000002	-43.90400100000000	0.19103700000000	0.00000000000000	-0.07320000000000	0.00000000000000	-6.20384200000000	0.00000000000000	0.00000000000000	-25.14669600000000	0.00000000000000	
8.92829800000000	8.09965300000000	201.70962599999999	-3.23612400000000	0.41122100000000	0.00000000000000	0.11905400000000	-63.40669000000000	705.44759799999997	-43.17114000000000	0.18994600000000	0.00000000000000	-0.07299600000000	0.00000000000000	-5.97132500000000	0.00000000000000	0.00000000000000	-24.93271400000000	0.00000000000000	
8.92996800000000	9.39882600000000	210.21161799999999	-2.62041900000000	0.41302900000000	0.00000000000000	0.11924500000000	-64.16751700000000	700.17484800000000	-42.42223300000000	0.18888100000000	0.00000000000000	-0.07278500000000	0.00000000000000	-5.71938200000000	0.00000000000000	0.00000000000000	-24.71509900000000	0.00000000000000	
8.93163500000000	10.72802900000000	218.81470500000000	-1.97347300000000	0.41483100000000	0.00000000000000	0.11942500000000	-64.91519000000000	694.74586499999998	-41.65771000000000	0.18784300000000	0.00000000000000	-0.07256900000000	0.00000000000000	-5.44550800000000	0.00000000000000	0.00000000000000	-24.49366200000000	0.00000000000000	
8.93330000000000	12.08836200000000	227.49625300000000	-1.29310800000000	0.41662600000000	0.00000000000000	0.11959400000000	-65.64743400000000	689.15854600000000	-40.87804200000000	0.18683500000000	0.00000000000000	-0.07234600000000	0.00000000000000	-5.14740600000000	0.00000000000000	0.00000000000000	-24.26820600000000	0.00000000000000	
8.93497100000000	13.48022100000000	236.23451900000001	-0.57764700000000	0.41841200000000	0.00000000000000	0.11975200000000	-66.36192699999999	683.41096100000004	-40.08373600000000	0.18585800000000	0.00000000000000	-0.07211700000000	0.00000000000000	-4.82314100000000	0.00000000000000	0.00000000000000	-24.03853100000000	0.00000000000000	
8.93663000000000	14.90317400000000	245.00949299999999	0.17396800000000	0.42018800000000	0.00000000000000	0.11990000000000	-67.05630900000000	677.50136699999996	-39.27534300000000	0.18491400000000	0.00000000000000	-0.07188200000000	0.00000000000000	-4.47123700000000	0.00000000000000	0.00000000000000	-23.80443200000000	0.00000000000000	
8.93830100000000	16.35592500000000	253.80343099999999	0.96212000000000	0.42195300000000	0.00000000000000	0.12003900000000	-67.72818599999999	671.42822600000000	-38.45344900000000	0.18400500000000	0.00000000000000	-0.07164000000000	0.00000000000000	-4.09073600000000	0.00000000000000	0.00000000000000	-23.56570200000000	0.00000000000000	
8.93996800000000	17.83634400000000	262.60113100000001	1.78652200000000	0.42370500000000	0.00000000000000	0.12017000000000	-68.37513800000001	665.19022500000005	-37.61868100000000	0.18313300000000	0.00000000000000	-0.07139100000000	0.00000000000000	-3.68120200000000	0.00000000000000	0.00000000000000	-23.32213000000000	0.00000000000000	
